<svg xmlns="http://www.w3.org/2000/svg" viewBox="0 0 400 400" width="400" height="400"><defs>
  <linearGradient id="body" x1="0" x2="1"><stop offset="0" stop-color="#ffffff"/><stop offset=".7" stop-color="#f3f6f9"/><stop offset="1" stop-color="#dde5ec"/></linearGradient>
  <linearGradient id="steel" x1="0" x2="1"><stop offset="0" stop-color="#c3ccd4"/><stop offset=".25" stop-color="#eef2f5"/><stop offset=".55" stop-color="#d2d9df"/><stop offset=".8" stop-color="#f4f6f8"/><stop offset="1" stop-color="#aeb8c1"/></linearGradient>
  <linearGradient id="chrome" x1="0" x2="0" y1="0" y2="1"><stop offset="0" stop-color="#f7f9fa"/><stop offset=".5" stop-color="#9aa6b1"/><stop offset="1" stop-color="#dfe5ea"/></linearGradient>
  <linearGradient id="water" x1="0" x2="1"><stop offset="0" stop-color="#8fcdf2"/><stop offset=".35" stop-color="#cdeafb"/><stop offset="1" stop-color="#7cbfe9"/></linearGradient>
  <linearGradient id="dark" x1="0" x2="0" y1="0" y2="1"><stop offset="0" stop-color="#2b3a4a"/><stop offset="1" stop-color="#46586b"/></linearGradient>
</defs><rect width="400" height="400" fill="#ffffff"/><circle cx="200" cy="200" r="172" fill="#eef5fb"/><ellipse cx="200" cy="368" rx="150" ry="10" fill="#0b2740" opacity=".1"/><rect x="54" y="96" width="208" height="12" rx="4" fill="#cfd7de" stroke="#9aa6b1"/><rect x="58" y="106" width="200" height="208" rx="6" fill="url(#steel)" stroke="#9aa6b1" stroke-width="2"/><rect x="124" y="128" width="68" height="22" rx="4" fill="#fff" stroke="#9aa6b1"/><text x="158" y="144" text-anchor="middle" font-family="Arial, sans-serif" font-size="12" font-weight="700" fill="#1f6fb2" letter-spacing="1">YPL</text><rect x="70" y="170" width="30" height="4" rx="2" fill="#8e9aa5" opacity=".6"/><rect x="70" y="180" width="30" height="4" rx="2" fill="#8e9aa5" opacity=".6"/><rect x="70" y="190" width="30" height="4" rx="2" fill="#8e9aa5" opacity=".6"/><rect x="70" y="200" width="30" height="4" rx="2" fill="#8e9aa5" opacity=".6"/><rect x="70" y="210" width="30" height="4" rx="2" fill="#8e9aa5" opacity=".6"/><rect x="70" y="220" width="30" height="4" rx="2" fill="#8e9aa5" opacity=".6"/><rect x="93" y="272" width="14" height="10" rx="3" fill="url(#chrome)" stroke="#8d99a4"/><path d="M97 282 v12 a3 3 0 0 0 6 0 v-12z" fill="url(#chrome)" stroke="#8d99a4"/><rect x="98" y="260" width="4" height="13" rx="2" fill="#6f7c88"/><rect x="131" y="272" width="14" height="10" rx="3" fill="url(#chrome)" stroke="#8d99a4"/><path d="M135 282 v12 a3 3 0 0 0 6 0 v-12z" fill="url(#chrome)" stroke="#8d99a4"/><rect x="136" y="260" width="4" height="13" rx="2" fill="#6f7c88"/><rect x="169" y="272" width="14" height="10" rx="3" fill="url(#chrome)" stroke="#8d99a4"/><path d="M173 282 v12 a3 3 0 0 0 6 0 v-12z" fill="url(#chrome)" stroke="#8d99a4"/><rect x="174" y="260" width="4" height="13" rx="2" fill="#6f7c88"/><rect x="207" y="272" width="14" height="10" rx="3" fill="url(#chrome)" stroke="#8d99a4"/><path d="M211 282 v12 a3 3 0 0 0 6 0 v-12z" fill="url(#chrome)" stroke="#8d99a4"/><rect x="212" y="260" width="4" height="13" rx="2" fill="#6f7c88"/><rect x="84" y="318" width="148" height="10" rx="3" fill="url(#chrome)" stroke="#8d99a4"/><rect x="68" y="314" width="10" height="48" fill="#8e9aa5"/><rect x="238" y="314" width="10" height="48" fill="#8e9aa5"/><path d="M258 220 H268" stroke="#5aa6db" stroke-width="4" stroke-linecap="round"/><rect x="268" y="132" width="84" height="196" rx="8" fill="#fff" stroke="#c7d3de" stroke-width="2"/><text x="310" y="152" text-anchor="middle" font-family="Arial, sans-serif" font-size="12" font-weight="700" fill="#1f6fb2">RO</text><rect x="280" y="162" width="20" height="12" rx="3" fill="#1f6fb2"/><rect x="282" y="172" width="16" height="104" rx="6" fill="#f4f8fb" stroke="#b9c7d3"/><rect x="285" y="180" width="4" height="86" rx="2" fill="#fff"/><rect x="300" y="162" width="20" height="12" rx="3" fill="#1f6fb2"/><rect x="302" y="172" width="16" height="104" rx="6" fill="#f4f8fb" stroke="#b9c7d3"/><rect x="305" y="180" width="4" height="86" rx="2" fill="#fff"/><rect x="320" y="162" width="20" height="12" rx="3" fill="#1f6fb2"/><rect x="322" y="172" width="16" height="104" rx="6" fill="#f4f8fb" stroke="#b9c7d3"/><rect x="325" y="180" width="4" height="86" rx="2" fill="#fff"/><rect x="280" y="290" width="60" height="26" rx="6" fill="url(#dark)"/><circle cx="296" cy="303" r="4" fill="#36b37e"/><circle cx="310" cy="303" r="4" fill="#3d8fd6"/></svg>
